<svg xmlns="http://www.w3.org/2000/svg" viewBox="0 0 692 270"><defs><style>.a{fill:#1e1e1e;}.b,.f,.g,.k{fill:none;stroke-miterlimit:10;}.b,.k{stroke:#1e1e1e;}.c{fill:#fff;}.d{fill:#347ab4;}.e{fill:#ffca1d;}.f{stroke:#606060;stroke-linecap:round;stroke-width:2px;}.g{stroke:#6f81d6;}.h{fill:#caf1b5;}.i{fill:#6f81d6;}.j{fill:#ffe249;}.k{stroke-width:4px;}</style></defs><title>Artboard 2</title><path class="a" d="M25.64,164.69a3.59,3.59,0,0,1,.86-.66,2.39,2.39,0,0,1,1.09-.24,2.16,2.16,0,0,1,.88.16,1.69,1.69,0,0,1,.64.47,2,2,0,0,1,.39.73,3.44,3.44,0,0,1,.13.94V170H28.55v-3.87a1.63,1.63,0,0,0-.31-1.07,1.16,1.16,0,0,0-1-.38,1.7,1.7,0,0,0-.88.23,2.72,2.72,0,0,0-.76.61V170H24.56v-8.84h1.08Z"/><path class="a" d="M36.19,169.11a2.11,2.11,0,0,1-.47.42,4,4,0,0,1-.59.29,4.77,4.77,0,0,1-.65.17,3.85,3.85,0,0,1-.67,0,3.11,3.11,0,0,1-1.16-.21,2.54,2.54,0,0,1-.92-.62,2.87,2.87,0,0,1-.6-1,4,4,0,0,1-.22-1.39,3.54,3.54,0,0,1,.2-1.19,2.7,2.7,0,0,1,.56-1,2.48,2.48,0,0,1,.89-.63,2.84,2.84,0,0,1,1.19-.23,2.79,2.79,0,0,1,1,.18,2.2,2.2,0,0,1,.8.53,2.38,2.38,0,0,1,.54.85,3.42,3.42,0,0,1,.19,1.15.66.66,0,0,1-.06.34c0,.06-.1.08-.2.08H32a3.34,3.34,0,0,0,.16,1,2,2,0,0,0,.39.71,1.56,1.56,0,0,0,.6.42,1.94,1.94,0,0,0,.78.14,2.31,2.31,0,0,0,.69-.09,3.05,3.05,0,0,0,.5-.2l.35-.2a.51.51,0,0,1,.25-.09.22.22,0,0,1,.2.1Zm-.86-2.85a2.06,2.06,0,0,0-.11-.68,1.57,1.57,0,0,0-.3-.54,1.39,1.39,0,0,0-.49-.34,1.53,1.53,0,0,0-.66-.13,1.63,1.63,0,0,0-1.21.45,2.14,2.14,0,0,0-.56,1.24Z"/><path class="a" d="M38.7,161.12V170H37.63v-8.84Z"/><path class="a" d="M41.53,161.12V170H40.46v-8.84Z"/><path class="a" d="M45.82,163.79A3,3,0,0,1,47,164a2.61,2.61,0,0,1,1.49,1.62,4.26,4.26,0,0,1,0,2.58A2.61,2.61,0,0,1,47,169.83a3.21,3.21,0,0,1-1.2.21,3.3,3.3,0,0,1-1.21-.21,2.56,2.56,0,0,1-.91-.63,2.7,2.7,0,0,1-.58-1,4.26,4.26,0,0,1,0-2.58,2.7,2.7,0,0,1,.58-1,2.56,2.56,0,0,1,.91-.63A3.11,3.11,0,0,1,45.82,163.79Zm0,5.42a1.58,1.58,0,0,0,1.35-.6,3.47,3.47,0,0,0,0-3.38,1.58,1.58,0,0,0-1.35-.6,1.92,1.92,0,0,0-.79.15,1.59,1.59,0,0,0-.57.45,2,2,0,0,0-.33.73,3.52,3.52,0,0,0-.11,1,2.78,2.78,0,0,0,.44,1.69A1.59,1.59,0,0,0,45.82,169.21Z"/><path class="a" d="M54.33,171v.72H49.61V171Z"/><path class="a" d="M64,163.88,62,170h-.85c-.1,0-.18-.07-.22-.2l-1.34-4.13a2.29,2.29,0,0,1-.08-.28l-.06-.27-.06.27c0,.1-.05.19-.08.29l-1.36,4.12a.24.24,0,0,1-.24.2h-.81l-2-6.08h.84A.32.32,0,0,1,56,164a.33.33,0,0,1,.11.15L57.26,168c.07.28.12.56.16.81,0-.13.07-.26.11-.4l.12-.41,1.29-3.94a.31.31,0,0,1,.1-.15.29.29,0,0,1,.19-.06h.46a.32.32,0,0,1,.2.06.33.33,0,0,1,.11.15L61.25,168a3.17,3.17,0,0,1,.12.41c0,.14.07.27.11.4,0-.13,0-.26.07-.4s.06-.27.1-.41l1.19-3.92A.33.33,0,0,1,63,164a.29.29,0,0,1,.2-.07Z"/><path class="a" d="M67.48,163.79a3,3,0,0,1,1.19.22,2.69,2.69,0,0,1,.92.63,2.85,2.85,0,0,1,.58,1,4.26,4.26,0,0,1,0,2.58,2.85,2.85,0,0,1-.58,1,2.69,2.69,0,0,1-.92.63,3.19,3.19,0,0,1-1.19.21,3.27,3.27,0,0,1-1.21-.21,2.6,2.6,0,0,1-.92-.63,2.85,2.85,0,0,1-.58-1,4.26,4.26,0,0,1,0-2.58,2.85,2.85,0,0,1,.58-1,2.6,2.6,0,0,1,.92-.63A3.07,3.07,0,0,1,67.48,163.79Zm0,5.42a1.56,1.56,0,0,0,1.34-.6,3.47,3.47,0,0,0,0-3.38,1.56,1.56,0,0,0-1.34-.6,2,2,0,0,0-.8.15,1.55,1.55,0,0,0-.56.45,2,2,0,0,0-.34.73,4,4,0,0,0-.11,1,2.78,2.78,0,0,0,.45,1.69A1.57,1.57,0,0,0,67.48,169.21Z"/><path class="a" d="M72.73,165.1a2.63,2.63,0,0,1,.71-1,1.51,1.51,0,0,1,1-.36,1.44,1.44,0,0,1,.37,0,.83.83,0,0,1,.32.13l-.08.8a.17.17,0,0,1-.18.15l-.25,0a1.79,1.79,0,0,0-.36,0,1.36,1.36,0,0,0-.51.09,1.16,1.16,0,0,0-.41.25,1.69,1.69,0,0,0-.31.41,3.13,3.13,0,0,0-.26.55V170H71.72v-6.08h.61a.33.33,0,0,1,.24.07.46.46,0,0,1,.09.23Z"/><path class="a" d="M77.19,161.12V170H76.12v-8.84Z"/><path class="a" d="M84,161.12V170h-.64a.27.27,0,0,1-.29-.22l-.1-.74a3.35,3.35,0,0,1-.88.76,2.29,2.29,0,0,1-1.16.28,2.09,2.09,0,0,1-.94-.2,1.89,1.89,0,0,1-.73-.59,2.82,2.82,0,0,1-.46-1,4.92,4.92,0,0,1-.16-1.34,4.2,4.2,0,0,1,.18-1.25,3,3,0,0,1,.51-1,2.34,2.34,0,0,1,.83-.67,2.32,2.32,0,0,1,1.1-.25,2.35,2.35,0,0,1,1,.19,2.4,2.4,0,0,1,.71.53v-3.37Zm-1.07,4.21a1.67,1.67,0,0,0-.65-.56,1.78,1.78,0,0,0-.78-.16,1.52,1.52,0,0,0-1.3.6,2.8,2.8,0,0,0-.46,1.73,4.29,4.29,0,0,0,.1,1,2.14,2.14,0,0,0,.3.7,1.15,1.15,0,0,0,.49.39,1.51,1.51,0,0,0,.65.13,1.73,1.73,0,0,0,.92-.24,2.59,2.59,0,0,0,.73-.68Z"/><path class="a" d="M85.46,169.3a.93.93,0,0,1,.05-.29.6.6,0,0,1,.16-.24.7.7,0,0,1,.24-.17.72.72,0,0,1,.29-.06.8.8,0,0,1,.3.06.66.66,0,0,1,.23.17.61.61,0,0,1,.17.24.72.72,0,0,1,.06.29.73.73,0,0,1-.06.3.66.66,0,0,1-.17.23.53.53,0,0,1-.23.16.8.8,0,0,1-.3.06.72.72,0,0,1-.29-.06.56.56,0,0,1-.24-.16.63.63,0,0,1-.16-.23A.94.94,0,0,1,85.46,169.3Z"/><path class="a" d="M89.49,164.82a3.21,3.21,0,0,1,.89-.76,2.28,2.28,0,0,1,1.15-.29,2.24,2.24,0,0,1,1,.2,2,2,0,0,1,.73.6,2.91,2.91,0,0,1,.46,1,5,5,0,0,1,.16,1.34,4.15,4.15,0,0,1-.18,1.25,2.88,2.88,0,0,1-.52,1,2.31,2.31,0,0,1-.82.67,2.5,2.5,0,0,1-1.1.24,2.13,2.13,0,0,1-1-.19,2.24,2.24,0,0,1-.71-.52V172H88.47v-8.14h.64a.26.26,0,0,1,.28.22Zm.05,3.68a1.7,1.7,0,0,0,.64.55,1.85,1.85,0,0,0,.78.17,1.55,1.55,0,0,0,1.31-.61,2.78,2.78,0,0,0,.46-1.73,4.36,4.36,0,0,0-.11-1,2.05,2.05,0,0,0-.3-.7,1.19,1.19,0,0,0-.49-.4,1.67,1.67,0,0,0-.65-.12,1.69,1.69,0,0,0-.91.24,2.45,2.45,0,0,0-.73.68Z"/><path class="a" d="M100.28,163.88l-3.39,7.87a.58.58,0,0,1-.13.2.44.44,0,0,1-.25.07h-.79l1.11-2.41-2.51-5.73h.92a.34.34,0,0,1,.33.22l1.63,3.83a4.64,4.64,0,0,1,.16.53c.06-.19.12-.37.18-.53l1.58-3.83a.37.37,0,0,1,.32-.22Z"/><rect class="b" x="36" y="71.96" width="52" height="68.95" rx="8.61"/><circle class="c" cx="73.14" cy="69.86" r="9.59"/><path class="d" d="M71.56,69.58h2.78a1.4,1.4,0,0,0,1.39-1.41V65.52a1.55,1.55,0,0,0-1.39-1.45,8.93,8.93,0,0,0-2.78,0c-1.17.21-1.39.65-1.39,1.45v.57H73v.84H69.13a1.74,1.74,0,0,0-1.74,1.41,5.33,5.33,0,0,0,0,2.83c.2.82.67,1.41,1.48,1.41h1V71.31a1.76,1.76,0,0,1,1.73-1.73Z"/><path class="e" d="M79,68.77c-.21-.81-.58-1.42-1.39-1.42h-1v1.24a1.78,1.78,0,0,1-1.74,1.76H72.05a1.42,1.42,0,0,0-1.39,1.42v2.64c0,.76.65,1.2,1.39,1.42a4.74,4.74,0,0,0,2.77,0c.7-.21,1.39-.61,1.39-1.42v-.55H73.44V73h4.17c.81,0,1.1-.56,1.39-1.41a4.82,4.82,0,0,0,0-2.82Z"/><path class="c" d="M71.39,65.6a.51.51,0,0,1,0-1,.51.51,0,0,1,.5.51A.5.5,0,0,1,71.39,65.6Z"/><path class="c" d="M74.76,75.4a.51.51,0,1,1,.5-.51A.5.5,0,0,1,74.76,75.4Z"/><line class="f" x1="42.96" y1="99.24" x2="69.87" y2="99.24"/><line class="f" x1="54.49" y1="110.11" x2="81.4" y2="110.11"/><line class="f" x1="42.32" y1="120.97" x2="54.49" y2="120.97"/><line class="f" x1="58.98" y1="120.97" x2="71.15" y2="120.97"/><line class="f" x1="75" y1="120.97" x2="81.4" y2="120.97"/><line class="f" x1="75" y1="99.24" x2="81.4" y2="99.24"/><line class="f" x1="42.96" y1="110.11" x2="49.37" y2="110.11"/><line class="f" x1="42.64" y1="88.77" x2="60.58" y2="88.77"/><line class="f" x1="67.63" y1="88.77" x2="81.4" y2="88.77"/><rect class="g" x="186.5" y="44.57" width="316" height="127.38" rx="10.81"/><rect class="h" x="212.5" y="199" width="115.5" height="52.5" rx="4.64"/><path class="i" d="M347.83,20V30h-1.36V22.91c0-.2,0-.41,0-.62s0-.45.06-.69c-.08.21-.16.4-.25.59a3.92,3.92,0,0,1-.27.47l-4.7,7a1.22,1.22,0,0,1-.26.3.51.51,0,0,1-.35.13h-1V20h1.36v7.13c0,.2,0,.41,0,.63s0,.45-.06.69a4.56,4.56,0,0,1,.26-.59c.09-.18.18-.34.26-.48l4.71-6.95a1.18,1.18,0,0,1,.25-.3.52.52,0,0,1,.36-.13Z"/><path class="i" d="M355.9,23V30h-1.26V26.72h-3.4V30H350V23h1.25v2.83h3.4V23Z"/><path class="i" d="M363.76,23.9H361V30H359.8V23.9h-2.73V23h6.69Z"/><path class="i" d="M370.42,29.05a2.37,2.37,0,0,1-.56.48,3.17,3.17,0,0,1-.69.34,3.86,3.86,0,0,1-.76.2,4.08,4.08,0,0,1-.77.07,3.54,3.54,0,0,1-1.36-.25,3,3,0,0,1-1.07-.73,3.22,3.22,0,0,1-.7-1.18,4.85,4.85,0,0,1-.26-1.63,4.22,4.22,0,0,1,.23-1.39,3.18,3.18,0,0,1,.66-1.11,2.9,2.9,0,0,1,1-.74,3.41,3.41,0,0,1,1.39-.27,3.29,3.29,0,0,1,1.18.21,2.58,2.58,0,0,1,.93.62,2.78,2.78,0,0,1,.62,1,3.78,3.78,0,0,1,.23,1.35.73.73,0,0,1-.07.39.24.24,0,0,1-.23.1h-4.74a4,4,0,0,0,.18,1.17,2.55,2.55,0,0,0,.46.83,1.89,1.89,0,0,0,.7.49,2.38,2.38,0,0,0,.91.17,2.78,2.78,0,0,0,.81-.11,2.9,2.9,0,0,0,.58-.24,3.54,3.54,0,0,0,.41-.23.59.59,0,0,1,.29-.11.26.26,0,0,1,.23.12Zm-1-3.33a2.22,2.22,0,0,0-.13-.79,1.93,1.93,0,0,0-.35-.63,1.64,1.64,0,0,0-.57-.4,2.11,2.11,0,0,0-2.18.38,2.36,2.36,0,0,0-.65,1.44Z"/><path class="i" d="M373.24,24.05a3.65,3.65,0,0,1,1-.89,2.69,2.69,0,0,1,1.34-.34,2.59,2.59,0,0,1,1.12.24,2.14,2.14,0,0,1,.84.69,3.18,3.18,0,0,1,.54,1.14,5.65,5.65,0,0,1,.19,1.56,4.91,4.91,0,0,1-.21,1.46,3.59,3.59,0,0,1-.6,1.17,2.79,2.79,0,0,1-1,.77,2.83,2.83,0,0,1-1.28.29,2.69,2.69,0,0,1-1.12-.22,2.59,2.59,0,0,1-.82-.61v3.13h-1.26V23h.75a.31.31,0,0,1,.33.26Zm.07,4.28a1.93,1.93,0,0,0,.74.65,2.12,2.12,0,0,0,.91.19,1.77,1.77,0,0,0,1.53-.71,3.25,3.25,0,0,0,.53-2,5.13,5.13,0,0,0-.12-1.19,2.47,2.47,0,0,0-.35-.82A1.47,1.47,0,0,0,376,24a1.84,1.84,0,0,0-.76-.15,2,2,0,0,0-1.07.28,3,3,0,0,0-.84.79Z"/><path class="i" d="M385.8,30h-1.25V23.9h-3.4V30h-1.26V23h5.91Z"/><path class="i" d="M389,24.05a3.65,3.65,0,0,1,1-.89,2.69,2.69,0,0,1,1.34-.34,2.52,2.52,0,0,1,1.12.24,2.14,2.14,0,0,1,.84.69,3.18,3.18,0,0,1,.54,1.14,5.65,5.65,0,0,1,.19,1.56,4.91,4.91,0,0,1-.21,1.46,3.59,3.59,0,0,1-.6,1.17,2.79,2.79,0,0,1-1,.77,2.83,2.83,0,0,1-1.28.29,2.45,2.45,0,0,1-1.94-.83v3.13h-1.26V23h.75a.31.31,0,0,1,.33.26Zm.07,4.28a2,2,0,0,0,.75.65,2.06,2.06,0,0,0,.91.19,1.76,1.76,0,0,0,1.52-.71,3.25,3.25,0,0,0,.53-2,5.13,5.13,0,0,0-.12-1.19,2.47,2.47,0,0,0-.35-.82,1.34,1.34,0,0,0-.57-.46,1.84,1.84,0,0,0-.76-.15,2,2,0,0,0-1.07.28,3.11,3.11,0,0,0-.84.79Z"/><path class="i" d="M401.37,29.05a2.53,2.53,0,0,1-.55.48,3.68,3.68,0,0,1-.69.34,4.05,4.05,0,0,1-.76.2,4.11,4.11,0,0,1-.78.07,3.58,3.58,0,0,1-1.36-.25,3,3,0,0,1-1.07-.73,3.36,3.36,0,0,1-.7-1.18,4.85,4.85,0,0,1-.25-1.63,4,4,0,0,1,.23-1.39,3.32,3.32,0,0,1,.65-1.11,3,3,0,0,1,1-.74,3.45,3.45,0,0,1,1.39-.27,3.25,3.25,0,0,1,1.18.21,2.7,2.7,0,0,1,.94.62,2.93,2.93,0,0,1,.62,1,3.79,3.79,0,0,1,.22,1.35.87.87,0,0,1-.06.39.25.25,0,0,1-.24.1h-4.74a4.34,4.34,0,0,0,.19,1.17,2.54,2.54,0,0,0,.45.83,1.85,1.85,0,0,0,.71.49,2.33,2.33,0,0,0,.9.17,2.69,2.69,0,0,0,.81-.11,3.28,3.28,0,0,0,.59-.24l.41-.23a.56.56,0,0,1,.28-.11.29.29,0,0,1,.24.12Zm-1-3.33a2.47,2.47,0,0,0-.12-.79,1.79,1.79,0,0,0-.36-.63,1.55,1.55,0,0,0-.57-.4,1.84,1.84,0,0,0-.76-.15,1.92,1.92,0,0,0-1.42.53,2.42,2.42,0,0,0-.65,1.44Z"/><path class="i" d="M408.79,23.9h-2.72V30h-1.24V23.9H402.1V23h6.69Z"/><path class="i" d="M409.73,24a3.75,3.75,0,0,1,2.77-1.13,2.71,2.71,0,0,1,1.06.2,2.23,2.23,0,0,1,.77.54,2.44,2.44,0,0,1,.48.85A3.46,3.46,0,0,1,415,25.5V30h-.55a.51.51,0,0,1-.28-.06.41.41,0,0,1-.16-.23l-.14-.68a5.31,5.31,0,0,1-.54.46,3,3,0,0,1-.56.34,3.33,3.33,0,0,1-.63.21,3.38,3.38,0,0,1-.74.07,2.88,2.88,0,0,1-.78-.11,1.93,1.93,0,0,1-.63-.35,1.69,1.69,0,0,1-.43-.58,2.17,2.17,0,0,1-.15-.84,1.51,1.51,0,0,1,.23-.81,2,2,0,0,1,.75-.69,4.86,4.86,0,0,1,1.35-.49,10.17,10.17,0,0,1,2-.22V25.5a1.9,1.9,0,0,0-.36-1.25,1.27,1.27,0,0,0-1-.42,2.15,2.15,0,0,0-.77.12,2.26,2.26,0,0,0-.54.26l-.39.25a.56.56,0,0,1-.33.12.31.31,0,0,1-.21-.07.49.49,0,0,1-.16-.16Zm4,2.9a11,11,0,0,0-1.46.13,4.23,4.23,0,0,0-1,.29,1.22,1.22,0,0,0-.55.41.87.87,0,0,0-.18.53,1.07,1.07,0,0,0,.1.49,1,1,0,0,0,.24.33,1.18,1.18,0,0,0,.37.19,1.76,1.76,0,0,0,.46.06,2.74,2.74,0,0,0,.6-.07,2.14,2.14,0,0,0,.52-.19,4.53,4.53,0,0,0,.46-.3,4,4,0,0,0,.43-.4Z"/><path class="i" d="M422.59,23.9h-2.73V30h-1.24V23.9h-2.73V23h6.7Z"/><path class="i" d="M426.47,22.84a3.46,3.46,0,0,1,1.4.26,2.84,2.84,0,0,1,1.06.73,3.22,3.22,0,0,1,.68,1.15,4.52,4.52,0,0,1,.23,1.51,4.44,4.44,0,0,1-.23,1.51,3.22,3.22,0,0,1-.68,1.15,2.84,2.84,0,0,1-1.06.73,3.64,3.64,0,0,1-1.4.26,3.73,3.73,0,0,1-1.41-.26,3,3,0,0,1-1.07-.73,3.2,3.2,0,0,1-.67-1.15,4.43,4.43,0,0,1-.24-1.51,4.51,4.51,0,0,1,.24-1.51,3.2,3.2,0,0,1,.67-1.15,3,3,0,0,1,1.07-.73A3.54,3.54,0,0,1,426.47,22.84Zm0,6.33a1.83,1.83,0,0,0,1.57-.71,3.29,3.29,0,0,0,.52-2,3.35,3.35,0,0,0-.52-2,1.83,1.83,0,0,0-1.57-.7,2.27,2.27,0,0,0-.93.18,1.86,1.86,0,0,0-.66.52,2.47,2.47,0,0,0-.39.85,4.81,4.81,0,0,0-.13,1.13,3.29,3.29,0,0,0,.52,2A1.86,1.86,0,0,0,426.47,29.17Z"/><path class="i" d="M432.61,24.05a3.52,3.52,0,0,1,1-.89,2.69,2.69,0,0,1,1.34-.34,2.51,2.51,0,0,1,1.11.24,2.17,2.17,0,0,1,.85.69,3.55,3.55,0,0,1,.54,1.14,5.65,5.65,0,0,1,.19,1.56,4.91,4.91,0,0,1-.21,1.46,3.43,3.43,0,0,1-.61,1.17,2.66,2.66,0,0,1-1,.77,2.85,2.85,0,0,1-1.29.29,2.49,2.49,0,0,1-1.94-.83v3.13h-1.25V23h.75a.31.31,0,0,1,.33.26Zm.06,4.28a2,2,0,0,0,.75.65,2.09,2.09,0,0,0,.91.19,1.79,1.79,0,0,0,1.53-.71,3.32,3.32,0,0,0,.53-2,5.13,5.13,0,0,0-.12-1.19,2.29,2.29,0,0,0-.36-.82,1.38,1.38,0,0,0-.56-.46,1.89,1.89,0,0,0-.77-.15,2,2,0,0,0-1.06.28,3.14,3.14,0,0,0-.85.79Z"/><path class="i" d="M446.1,20a5.4,5.4,0,0,1,1.65.22,3.27,3.27,0,0,1,1.17.63,2.43,2.43,0,0,1,.69,1,3.47,3.47,0,0,1,.23,1.28,3.36,3.36,0,0,1-.25,1.28,2.64,2.64,0,0,1-.72,1,3.19,3.19,0,0,1-1.16.65,5,5,0,0,1-1.61.24h-1.61V30h-1.35V20Zm0,5.2a3.13,3.13,0,0,0,1-.15,2.27,2.27,0,0,0,.75-.43,1.71,1.71,0,0,0,.46-.67,2.28,2.28,0,0,0,.16-.84,1.91,1.91,0,0,0-.6-1.5,2.57,2.57,0,0,0-1.79-.54h-1.61v4.13Z"/><path class="i" d="M457.37,23l-4,9.18a.66.66,0,0,1-.15.23.49.49,0,0,1-.3.08H452l1.3-2.81L450.41,23h1.08a.37.37,0,0,1,.25.08.32.32,0,0,1,.13.18l1.9,4.46a4.44,4.44,0,0,1,.19.62c.07-.22.13-.43.21-.62L456,23.21a.45.45,0,0,1,.14-.19.39.39,0,0,1,.23-.07Z"/><path class="i" d="M460.64,30.15a1.68,1.68,0,0,1-1.29-.47,1.87,1.87,0,0,1-.45-1.35V24h-.85a.24.24,0,0,1-.27-.27v-.5l1.16-.14.29-2.2a.3.3,0,0,1,.1-.17.27.27,0,0,1,.19-.06h.63v2.44h2.05V24h-2.05v4.26a.9.9,0,0,0,.21.66.76.76,0,0,0,.56.22,1.11,1.11,0,0,0,.34-.05l.25-.12.18-.11a.22.22,0,0,1,.13-.06c.07,0,.12,0,.18.12l.36.6a2.26,2.26,0,0,1-.78.47A2.7,2.7,0,0,1,460.64,30.15Z"/><path class="i" d="M464.74,23.89a3.93,3.93,0,0,1,1-.77,2.73,2.73,0,0,1,1.27-.28,2.56,2.56,0,0,1,1,.19,2,2,0,0,1,.74.55,2.23,2.23,0,0,1,.45.85,3.73,3.73,0,0,1,.15,1.09V30h-1.25V25.52a1.85,1.85,0,0,0-.37-1.24,1.34,1.34,0,0,0-1.11-.45,2,2,0,0,0-1,.27,3,3,0,0,0-.89.72V30h-1.25V19.73h1.25Z"/><path class="i" d="M474.29,22.84a3.53,3.53,0,0,1,1.4.26,2.92,2.92,0,0,1,1.06.73,3.37,3.37,0,0,1,.68,1.15,4.78,4.78,0,0,1,.23,1.51,4.7,4.7,0,0,1-.23,1.51,3.37,3.37,0,0,1-.68,1.15,2.92,2.92,0,0,1-1.06.73,3.71,3.71,0,0,1-1.4.26,3.65,3.65,0,0,1-1.41-.26,2.87,2.87,0,0,1-1.07-.73,3.22,3.22,0,0,1-.68-1.15,4.7,4.7,0,0,1-.23-1.51,4.78,4.78,0,0,1,.23-1.51,3.22,3.22,0,0,1,.68-1.15,2.87,2.87,0,0,1,1.07-.73A3.48,3.48,0,0,1,474.29,22.84Zm0,6.33a1.8,1.8,0,0,0,1.56-.71,3.22,3.22,0,0,0,.52-2,3.28,3.28,0,0,0-.52-2,1.79,1.79,0,0,0-1.56-.7,2.2,2.2,0,0,0-.93.18,1.86,1.86,0,0,0-.66.52,2.47,2.47,0,0,0-.39.85,4.33,4.33,0,0,0-.13,1.13,3.22,3.22,0,0,0,.52,2A1.86,1.86,0,0,0,474.29,29.17Z"/><path class="i" d="M480.41,24a5.38,5.38,0,0,1,.49-.47,3.25,3.25,0,0,1,.55-.36,2.72,2.72,0,0,1,.62-.23,2.59,2.59,0,0,1,.7-.08,2.56,2.56,0,0,1,1,.19,2,2,0,0,1,.74.55,2.23,2.23,0,0,1,.45.85,3.73,3.73,0,0,1,.15,1.09V30h-1.25V25.52a1.85,1.85,0,0,0-.37-1.24,1.34,1.34,0,0,0-1.11-.45,2,2,0,0,0-1,.27,3,3,0,0,0-.89.72V30h-1.25V23H480a.3.3,0,0,1,.32.26Z"/><rect class="j" x="207" y="71.53" width="90" height="73.45" rx="4.73"/><path class="a" d="M225.56,111.8h-1a.45.45,0,0,1-.3-.1.9.9,0,0,1-.23-.27l-2.27-3.15a1.17,1.17,0,0,0-.34-.33,1.1,1.1,0,0,0-.49-.09h-1v3.94H218.7v-8.6h1.16V107h.89a1,1,0,0,0,.46-.09.94.94,0,0,0,.38-.33l2.25-3a.73.73,0,0,1,.22-.24.49.49,0,0,1,.3-.09h1l-2.6,3.53a1.47,1.47,0,0,1-.76.57,1.52,1.52,0,0,1,.54.27,2,2,0,0,1,.42.51Z"/><path class="a" d="M228.59,105.62a3,3,0,0,1,1.2.23,2.37,2.37,0,0,1,.92.63,2.9,2.9,0,0,1,.58,1,4.08,4.08,0,0,1,.2,1.3,4,4,0,0,1-.2,1.29,2.94,2.94,0,0,1-.58,1,2.45,2.45,0,0,1-.92.62,3,3,0,0,1-1.2.22,3.06,3.06,0,0,1-1.2-.22,2.45,2.45,0,0,1-.92-.62,2.94,2.94,0,0,1-.58-1,4,4,0,0,1-.2-1.29,4.08,4.08,0,0,1,.2-1.3,2.9,2.9,0,0,1,.58-1,2.37,2.37,0,0,1,.92-.63A3.06,3.06,0,0,1,228.59,105.62Zm0,5.43a1.56,1.56,0,0,0,1.35-.61,2.82,2.82,0,0,0,.44-1.68,2.85,2.85,0,0,0-.44-1.69,1.59,1.59,0,0,0-1.35-.61,2,2,0,0,0-.79.16,1.37,1.37,0,0,0-.56.45,2,2,0,0,0-.34.72,4.11,4.11,0,0,0-.11,1,2.75,2.75,0,0,0,.45,1.68A1.55,1.55,0,0,0,228.59,111.05Z"/><path class="a" d="M239.61,105.7v6.1h-1v-4a2.75,2.75,0,0,1,0-.38c0-.13,0-.26.05-.38l-2.11,3.7a.29.29,0,0,1-.13.14.28.28,0,0,1-.18.06h-.12a.3.3,0,0,1-.18-.06.35.35,0,0,1-.13-.14L233.72,107q0,.18.06.39c0,.14,0,.27,0,.38v4h-1v-6.1h.85a.64.64,0,0,1,.23,0,.47.47,0,0,1,.18.19l1.9,3.17a5,5,0,0,1,.24.58,4.39,4.39,0,0,1,.24-.58l1.86-3.17a.49.49,0,0,1,.19-.19.59.59,0,0,1,.22,0Z"/><path class="a" d="M246.37,111.8h-1.08v-5.26h-2.91v5.26H241.3v-6.08h5.07Z"/><path class="a" d="M253.27,105.72v6.08H252.2v-4.13a2.46,2.46,0,0,1,0-.26,1.24,1.24,0,0,1,0-.27c0,.08-.08.15-.11.22a1.4,1.4,0,0,1-.12.18l-2.93,4a.75.75,0,0,1-.17.19.32.32,0,0,1-.21.08h-.65v-6.07h1.07v4.12a2.18,2.18,0,0,1,0,.25l0,.28.11-.22a1.74,1.74,0,0,1,.11-.18l2.93-4a.72.72,0,0,1,.17-.18.33.33,0,0,1,.22-.09Z"/><path class="a" d="M260.29,111.8h-1.07v-5.24H257.3a18.72,18.72,0,0,1-.21,2,9.07,9.07,0,0,1-.35,1.43,3.59,3.59,0,0,1-.45,1,2.3,2.3,0,0,1-.52.58,1.52,1.52,0,0,1-.56.27,2.38,2.38,0,0,1-.58.08c-.34,0-.51-.06-.51-.17V111h.31a1.19,1.19,0,0,0,.41-.08,1,1,0,0,0,.41-.27,2.09,2.09,0,0,0,.39-.58,4.2,4.2,0,0,0,.34-1,11.68,11.68,0,0,0,.26-1.43c.08-.56.14-1.23.18-2h3.87Z"/><path class="a" d="M266.2,105.72v6.08h-1v-2.56h-.47a1.19,1.19,0,0,0-.28,0l-.19.08a.53.53,0,0,0-.14.12l-.12.17-1.34,1.8a.69.69,0,0,1-.25.28.79.79,0,0,1-.42.09h-.75l1.77-2.29a1,1,0,0,1,.57-.49,2.33,2.33,0,0,1-.78-.21,1.61,1.61,0,0,1-.52-.37A1.23,1.23,0,0,1,262,108a1.58,1.58,0,0,1-.09-.52,1.76,1.76,0,0,1,.12-.63,1.47,1.47,0,0,1,.39-.55,2,2,0,0,1,.7-.4,3.17,3.17,0,0,1,1-.15Zm-1,2.84v-2.12h-1a1.35,1.35,0,0,0-.57.1,1,1,0,0,0-.38.25,1,1,0,0,0-.2.34,1.26,1.26,0,0,0-.06.38.92.92,0,0,0,.36.77,1.61,1.61,0,0,0,1,.28Z"/><path class="a" d="M273,106.54h-2.33v5.26h-1.07v-5.26h-2.33v-.82H273Z"/><path class="a" d="M276.28,105.62a3,3,0,0,1,1.2.23,2.33,2.33,0,0,1,.91.63,2.61,2.61,0,0,1,.58,1,3.82,3.82,0,0,1,.2,1.3,3.72,3.72,0,0,1-.2,1.29,2.65,2.65,0,0,1-.58,1,2.42,2.42,0,0,1-.91.62,3,3,0,0,1-1.2.22,3.11,3.11,0,0,1-1.21-.22,2.42,2.42,0,0,1-.91-.62,2.79,2.79,0,0,1-.58-1,3.72,3.72,0,0,1-.2-1.29,3.82,3.82,0,0,1,.2-1.3,2.74,2.74,0,0,1,.58-1,2.33,2.33,0,0,1,.91-.63A3.11,3.11,0,0,1,276.28,105.62Zm0,5.43a1.56,1.56,0,0,0,1.35-.61,2.82,2.82,0,0,0,.44-1.68,2.85,2.85,0,0,0-.44-1.69,1.59,1.59,0,0,0-1.35-.61,1.92,1.92,0,0,0-.79.16,1.4,1.4,0,0,0-.57.45,2,2,0,0,0-.33.72,3.64,3.64,0,0,0-.11,1,2.82,2.82,0,0,0,.44,1.68A1.57,1.57,0,0,0,276.28,111.05Z"/><path class="a" d="M281.54,106.66a3.36,3.36,0,0,1,.89-.76,2.42,2.42,0,0,1,2.11-.09,2,2,0,0,1,.72.6,2.83,2.83,0,0,1,.47,1,5.41,5.41,0,0,1,.16,1.34,4.2,4.2,0,0,1-.18,1.25,3.06,3.06,0,0,1-.52,1,2.38,2.38,0,0,1-1.93.91,2.1,2.1,0,0,1-1.66-.71v2.68h-1.08v-8.13h.65a.26.26,0,0,1,.28.22Zm.06,3.67a1.66,1.66,0,0,0,.64.56,1.78,1.78,0,0,0,.78.16,1.55,1.55,0,0,0,1.31-.6,2.87,2.87,0,0,0,.45-1.73,4.29,4.29,0,0,0-.1-1,2.05,2.05,0,0,0-.3-.7,1.33,1.33,0,0,0-.49-.4,1.67,1.67,0,0,0-.65-.12,1.73,1.73,0,0,0-.92.24,2.65,2.65,0,0,0-.72.67Z"/><rect class="j" x="383" y="71.53" width="106" height="73.45" rx="4.73"/><path class="a" d="M404.55,89.8a4.93,4.93,0,0,1,1.36.16,2.7,2.7,0,0,1,.95.44,1.84,1.84,0,0,1,.54.7,2.58,2.58,0,0,1,.17.94,1.74,1.74,0,0,1-.1.61,1.71,1.71,0,0,1-.29.55,2.75,2.75,0,0,1-.5.45A3.2,3.2,0,0,1,406,94a2.59,2.59,0,0,1,1.43.67,1.78,1.78,0,0,1,.48,1.3,2.51,2.51,0,0,1-.2,1,2.21,2.21,0,0,1-.59.77,2.77,2.77,0,0,1-.95.5,4.28,4.28,0,0,1-1.29.18h-3V89.8Zm-1.59.92v2.93h1.54a2.81,2.81,0,0,0,.86-.11,1.69,1.69,0,0,0,.6-.3,1.23,1.23,0,0,0,.35-.46,1.64,1.64,0,0,0,.11-.6,1.29,1.29,0,0,0-.46-1.11,2.25,2.25,0,0,0-1.41-.35Zm1.86,6.75a2.72,2.72,0,0,0,.86-.11,1.58,1.58,0,0,0,.59-.32,1.18,1.18,0,0,0,.34-.49,1.81,1.81,0,0,0,.11-.63,1.29,1.29,0,0,0-.47-1,2.22,2.22,0,0,0-1.43-.39H403v3Z"/><path class="a" d="M414.39,92.32V98.4h-1.06V94.27a2.35,2.35,0,0,1,0-.26l0-.27c0,.08-.07.15-.11.22a1.42,1.42,0,0,1-.11.18l-2.94,4a1,1,0,0,1-.16.19.37.37,0,0,1-.22.08h-.65V92.33h1.07v4.12a2.18,2.18,0,0,1,0,.25l0,.28c0-.08.08-.15.11-.22l.11-.18,2.93-4a1,1,0,0,1,.17-.18.33.33,0,0,1,.22-.09Z"/><path class="a" d="M417.11,93.26a3.18,3.18,0,0,1,.88-.76,2.32,2.32,0,0,1,1.16-.29,2.24,2.24,0,0,1,1,.2,2,2,0,0,1,.73.6,2.82,2.82,0,0,1,.46,1,5,5,0,0,1,.16,1.34,4.2,4.2,0,0,1-.18,1.25,2.88,2.88,0,0,1-.52,1,2.36,2.36,0,0,1-.83.67,2.44,2.44,0,0,1-1.1.24,2.12,2.12,0,0,1-.95-.19,2.24,2.24,0,0,1-.71-.52v2.69h-1.07V92.32h.64a.26.26,0,0,1,.28.22Zm.05,3.67a1.74,1.74,0,0,0,.64.56,1.81,1.81,0,0,0,.78.16,1.54,1.54,0,0,0,1.31-.6,2.8,2.8,0,0,0,.46-1.73,4.24,4.24,0,0,0-.11-1,2.05,2.05,0,0,0-.3-.7,1.26,1.26,0,0,0-.49-.4,1.67,1.67,0,0,0-.65-.12,1.75,1.75,0,0,0-.92.24,2.65,2.65,0,0,0-.72.67Z"/><path class="a" d="M427.69,93.14h-2.33V98.4h-1.07V93.14H422v-.82h5.73Z"/><path class="a" d="M434,92.32l-3.39,7.87a.47.47,0,0,1-.14.19.34.34,0,0,1-.25.08h-.79L430.49,98,428,92.32h.93a.32.32,0,0,1,.22.07.39.39,0,0,1,.11.15l1.62,3.83a4.11,4.11,0,0,1,.17.53,4.27,4.27,0,0,1,.18-.54l1.57-3.82a.4.4,0,0,1,.13-.16.31.31,0,0,1,.19-.06Z"/><path class="a" d="M434.61,93.18a3.42,3.42,0,0,1,1.09-.73,3.37,3.37,0,0,1,1.29-.24,2.38,2.38,0,0,1,.91.17,1.85,1.85,0,0,1,.66.47,2,2,0,0,1,.41.72,3.14,3.14,0,0,1,.14.94V98.4h-.48a.54.54,0,0,1-.24-.05.39.39,0,0,1-.13-.2l-.12-.58a4,4,0,0,1-.47.39,2.36,2.36,0,0,1-.48.29,2.21,2.21,0,0,1-.53.18,3.1,3.1,0,0,1-.64.06,2.07,2.07,0,0,1-.66-.1,1.41,1.41,0,0,1-.54-.29,1.34,1.34,0,0,1-.37-.5,1.78,1.78,0,0,1-.14-.72,1.34,1.34,0,0,1,.2-.69,1.68,1.68,0,0,1,.64-.59,4.09,4.09,0,0,1,1.16-.43,9.17,9.17,0,0,1,1.75-.19v-.47a1.64,1.64,0,0,0-.3-1.07,1.12,1.12,0,0,0-.9-.36,2.1,2.1,0,0,0-.66.09,2.19,2.19,0,0,0-.46.23l-.34.22a.5.5,0,0,1-.27.1.29.29,0,0,1-.19-.06.44.44,0,0,1-.13-.14Zm3.45,2.48a9.64,9.64,0,0,0-1.25.12A3.5,3.5,0,0,0,436,96a1.13,1.13,0,0,0-.47.36.72.72,0,0,0-.15.45,1.08,1.08,0,0,0,.08.42.74.74,0,0,0,.21.28.88.88,0,0,0,.32.16,1.23,1.23,0,0,0,.39,0,2.78,2.78,0,0,0,.52,0,2.35,2.35,0,0,0,.44-.17,2.48,2.48,0,0,0,.4-.26,3.75,3.75,0,0,0,.36-.34Z"/><path class="a" d="M446.06,98.4H445V93.16h-1.92a18.72,18.72,0,0,1-.21,2,9.07,9.07,0,0,1-.35,1.43,3.59,3.59,0,0,1-.45,1,2.3,2.3,0,0,1-.52.58,1.52,1.52,0,0,1-.56.27,2.38,2.38,0,0,1-.58.08c-.34,0-.51-.06-.51-.17v-.67h.31a1.19,1.19,0,0,0,.41-.08,1.11,1.11,0,0,0,.42-.27,2.33,2.33,0,0,0,.38-.58,4.2,4.2,0,0,0,.34-1,13.7,13.7,0,0,0,.27-1.43c.07-.56.13-1.23.17-2h3.87Z"/><path class="a" d="M450.07,94.7a3.26,3.26,0,0,1,1.06.15,2,2,0,0,1,.69.4,1.47,1.47,0,0,1,.37.59,2,2,0,0,1,.12.68,1.86,1.86,0,0,1-.15.75,1.56,1.56,0,0,1-.42.6,2.24,2.24,0,0,1-.7.39,3,3,0,0,1-1,.14h-2.34V92.32h1V94.7Zm0,2.92a1.89,1.89,0,0,0,.56-.08,1.06,1.06,0,0,0,.39-.23,1,1,0,0,0,.24-.35,1.18,1.18,0,0,0,.07-.43,1.29,1.29,0,0,0-.06-.4,1,1,0,0,0-.22-.34,1.09,1.09,0,0,0-.4-.22,1.72,1.72,0,0,0-.6-.09h-1.29v2.14Z"/><path class="a" d="M458.57,92.32V98.4h-1.08V95.55h-2.91V98.4H453.5V92.32h1.08v2.42h2.91V92.32Z"/><path class="a" d="M460.1,93.18a3.42,3.42,0,0,1,1.09-.73,3.37,3.37,0,0,1,1.29-.24,2.29,2.29,0,0,1,.9.17,1.8,1.8,0,0,1,.67.47,2,2,0,0,1,.41.72,3.14,3.14,0,0,1,.14.94V98.4h-.48a.54.54,0,0,1-.24-.05.39.39,0,0,1-.13-.2l-.12-.58a5.09,5.09,0,0,1-.47.39,2.36,2.36,0,0,1-.48.29,2.45,2.45,0,0,1-.54.18,3,3,0,0,1-.63.06,2,2,0,0,1-.66-.1,1.53,1.53,0,0,1-.55-.29,1.43,1.43,0,0,1-.36-.5,1.78,1.78,0,0,1-.14-.72,1.34,1.34,0,0,1,.2-.69,1.68,1.68,0,0,1,.64-.59,4,4,0,0,1,1.16-.43,9.17,9.17,0,0,1,1.75-.19v-.47a1.64,1.64,0,0,0-.3-1.07,1.13,1.13,0,0,0-.9-.36,2.1,2.1,0,0,0-.66.09,2.19,2.19,0,0,0-.46.23c-.13.08-.25.15-.34.22a.53.53,0,0,1-.28.1.28.28,0,0,1-.18-.06.47.47,0,0,1-.14-.14Zm3.45,2.48a10,10,0,0,0-1.26.12,3.55,3.55,0,0,0-.84.24,1.16,1.16,0,0,0-.48.36.77.77,0,0,0-.14.45.93.93,0,0,0,.08.42.74.74,0,0,0,.21.28.8.8,0,0,0,.32.16,1.23,1.23,0,0,0,.39,0,2.78,2.78,0,0,0,.52,0,2.35,2.35,0,0,0,.44-.17,2,2,0,0,0,.39-.26,2.92,2.92,0,0,0,.37-.34Z"/><path class="a" d="M470.44,92.32V98.4h-1V95.84H469a1.19,1.19,0,0,0-.28,0l-.19.08a.53.53,0,0,0-.14.12l-.13.17L466.88,98a.76.76,0,0,1-.25.28.81.81,0,0,1-.43.09h-.74l1.76-2.29a1.1,1.1,0,0,1,.57-.48,2.76,2.76,0,0,1-.78-.22,1.68,1.68,0,0,1-.51-.37,1.25,1.25,0,0,1-.3-.47,1.57,1.57,0,0,1,0-1.15,1.47,1.47,0,0,1,.39-.55,2,2,0,0,1,.7-.4,3.17,3.17,0,0,1,1-.15Zm-1,2.84V93h-1a1.44,1.44,0,0,0-.58.1,1,1,0,0,0-.37.25,1,1,0,0,0-.2.34,1.26,1.26,0,0,0-.06.38.92.92,0,0,0,.36.77,1.61,1.61,0,0,0,1,.28Z"/><path class="a" d="M408.33,106.7v6.1h-1v-4c0-.11,0-.24,0-.38l.06-.38-2.11,3.7a.35.35,0,0,1-.13.14.28.28,0,0,1-.18.06h-.12a.28.28,0,0,1-.18-.06.35.35,0,0,1-.13-.14L402.44,108q0,.18.06.39c0,.14,0,.27,0,.38v4h-1v-6.1h.86a.54.54,0,0,1,.22,0,.44.44,0,0,1,.19.19l1.9,3.17a5,5,0,0,1,.24.58,4.39,4.39,0,0,1,.24-.58l1.86-3.17a.43.43,0,0,1,.19-.19.54.54,0,0,1,.22,0Z"/><path class="a" d="M409.86,107.58a3.42,3.42,0,0,1,1.09-.73,3.37,3.37,0,0,1,1.29-.24,2.38,2.38,0,0,1,.91.17,1.85,1.85,0,0,1,.66.47,2,2,0,0,1,.41.72,3.14,3.14,0,0,1,.14.94v3.89h-.48a.54.54,0,0,1-.24,0,.39.39,0,0,1-.13-.2l-.12-.58a4,4,0,0,1-.47.39,2.36,2.36,0,0,1-.48.29,2.21,2.21,0,0,1-.53.18,3.1,3.1,0,0,1-.64.06,2.07,2.07,0,0,1-.66-.1,1.41,1.41,0,0,1-.54-.29,1.34,1.34,0,0,1-.37-.5,1.78,1.78,0,0,1-.14-.72,1.34,1.34,0,0,1,.2-.69,1.76,1.76,0,0,1,.64-.59,4.09,4.09,0,0,1,1.16-.43,9.17,9.17,0,0,1,1.75-.19v-.47a1.64,1.64,0,0,0-.3-1.07,1.12,1.12,0,0,0-.9-.36,1.83,1.83,0,0,0-.66.1,1.79,1.79,0,0,0-.46.22l-.34.22a.5.5,0,0,1-.27.1.29.29,0,0,1-.19-.06.44.44,0,0,1-.13-.14Zm3.45,2.48a9.64,9.64,0,0,0-1.25.12,3.5,3.5,0,0,0-.85.24,1.13,1.13,0,0,0-.47.36.72.72,0,0,0-.15.45,1.08,1.08,0,0,0,.08.42.74.74,0,0,0,.21.28.88.88,0,0,0,.32.16,1.23,1.23,0,0,0,.39,0,2.14,2.14,0,0,0,.52,0,2.35,2.35,0,0,0,.44-.17,2.48,2.48,0,0,0,.4-.26,3.75,3.75,0,0,0,.36-.34Z"/><path class="a" d="M424.16,106.72v6.08H416v-6.08h1.08V112h2.48v-5.27h1.07V112h2.48v-5.27Z"/><path class="a" d="M431.07,106.72v6.08H430v-4.13a2.35,2.35,0,0,1,0-.26l0-.27a1.51,1.51,0,0,1-.11.22.78.78,0,0,1-.11.18l-2.93,4a1,1,0,0,1-.17.19.35.35,0,0,1-.22.08h-.65v-6.07h1.08v4.12c0,.08,0,.16,0,.25l0,.28c0-.08.07-.15.1-.22a1.74,1.74,0,0,0,.11-.18l2.94-4a1.29,1.29,0,0,1,.16-.18.35.35,0,0,1,.23-.09Z"/><path class="a" d="M437.82,106.72v6.08h-1.07V110h-2.92v2.85h-1.07v-6.08h1.07v2.42h2.92v-2.42Z"/><path class="a" d="M439.36,107.58a3.42,3.42,0,0,1,1.09-.73,3.3,3.3,0,0,1,1.29-.24,2.29,2.29,0,0,1,.9.17,1.8,1.8,0,0,1,.67.47,2.12,2.12,0,0,1,.41.72,3.14,3.14,0,0,1,.13.94v3.89h-.47a.54.54,0,0,1-.24,0,.34.34,0,0,1-.13-.2l-.12-.58a5.09,5.09,0,0,1-.47.39,2.36,2.36,0,0,1-.48.29,2.45,2.45,0,0,1-.54.18,3.06,3.06,0,0,1-.63.06,2.09,2.09,0,0,1-.67-.1,1.48,1.48,0,0,1-.54-.29,1.43,1.43,0,0,1-.36-.5,1.78,1.78,0,0,1-.14-.72,1.34,1.34,0,0,1,.2-.69,1.68,1.68,0,0,1,.64-.59,4,4,0,0,1,1.16-.43,9.07,9.07,0,0,1,1.75-.19v-.47a1.59,1.59,0,0,0-.31-1.07,1.1,1.1,0,0,0-.89-.36,1.83,1.83,0,0,0-.66.1,2,2,0,0,0-.47.22l-.33.22a.56.56,0,0,1-.28.1.33.33,0,0,1-.19-.06.58.58,0,0,1-.13-.14Zm3.45,2.48a10,10,0,0,0-1.26.12,3.41,3.41,0,0,0-.84.24,1.16,1.16,0,0,0-.48.36.71.71,0,0,0-.14.45,1.09,1.09,0,0,0,.07.42.88.88,0,0,0,.22.28.8.8,0,0,0,.32.16,1.23,1.23,0,0,0,.39,0,2,2,0,0,0,.51,0,1.92,1.92,0,0,0,.44-.17,2.48,2.48,0,0,0,.4-.26,2.92,2.92,0,0,0,.37-.34Z"/><path class="a" d="M402.18,123.42a9.48,9.48,0,0,0,.33,2.5,9.08,9.08,0,0,0,.95,2.3.33.33,0,0,1,.05.29.43.43,0,0,1-.14.16l-.47.29a11.2,11.2,0,0,1-.77-1.37,9.4,9.4,0,0,1-.51-1.36,9.65,9.65,0,0,1-.28-1.38,11.33,11.33,0,0,1,0-2.85,9.65,9.65,0,0,1,.28-1.38,9.29,9.29,0,0,1,.51-1.35,11.3,11.3,0,0,1,.77-1.38l.47.3a.4.4,0,0,1,.14.15.31.31,0,0,1-.05.28,9.3,9.3,0,0,0-.95,2.31A9.46,9.46,0,0,0,402.18,123.42Z"/><path class="a" d="M407.55,118.6a4.65,4.65,0,0,1,1.42.19,2.6,2.6,0,0,1,1,.54,2.17,2.17,0,0,1,.59.84,2.9,2.9,0,0,1,.19,1.09,2.8,2.8,0,0,1-.21,1.1,2.37,2.37,0,0,1-.61.86,2.86,2.86,0,0,1-1,.56,4.46,4.46,0,0,1-1.38.2h-1.38v3.22H405v-8.6Zm0,4.46a2.66,2.66,0,0,0,.88-.14,1.81,1.81,0,0,0,.64-.36,1.49,1.49,0,0,0,.39-.57,1.9,1.9,0,0,0,.13-.73,1.63,1.63,0,0,0-.5-1.28,2.22,2.22,0,0,0-1.54-.46h-1.38v3.54Z"/><path class="a" d="M419.11,118.6l-3.5,8.6h-1.05l-3.5-8.6H412a.39.39,0,0,1,.25.08.43.43,0,0,1,.14.2l2.43,6.06q.07.21.15.45a5.07,5.07,0,0,1,.14.5c0-.18.08-.35.12-.5s.09-.31.15-.45l2.42-6.06a.43.43,0,0,1,.39-.28Z"/><path class="a" d="M429.19,118.6v8.6h-1v-6.32a2.53,2.53,0,0,1,0-.27c0-.1,0-.19,0-.29l-2.95,5.37a.44.44,0,0,1-.42.27h-.17a.44.44,0,0,1-.42-.27l-3-5.4c0,.21,0,.41,0,.59v6.32h-1v-8.6h.86a.7.7,0,0,1,.24,0,.33.33,0,0,1,.16.17l3,5.29.15.3a3,3,0,0,1,.12.32c0-.11.09-.22.13-.32a2.92,2.92,0,0,1,.14-.31l2.92-5.28a.33.33,0,0,1,.16-.17.78.78,0,0,1,.24,0Z"/><path class="a" d="M432,123.42a9.89,9.89,0,0,0-.32-2.49,9.72,9.72,0,0,0-1-2.31.64.64,0,0,1-.06-.16.24.24,0,0,1,0-.12.47.47,0,0,1,.06-.09l.09-.06.47-.3a11.3,11.3,0,0,1,.77,1.38,9.29,9.29,0,0,1,.51,1.35,9.65,9.65,0,0,1,.28,1.38,11.33,11.33,0,0,1,0,2.85,9.65,9.65,0,0,1-.28,1.38,9.4,9.4,0,0,1-.51,1.36,11.2,11.2,0,0,1-.77,1.37l-.47-.29-.09-.07a.47.47,0,0,1-.06-.09.24.24,0,0,1,0-.12.7.7,0,0,1,.06-.17,9.49,9.49,0,0,0,1-2.3A9.9,9.9,0,0,0,432,123.42Z"/><path class="a" d="M243,220.19v8.6h-1v-6.32a2.62,2.62,0,0,1,0-.27,2.83,2.83,0,0,1,0-.29l-3,5.37a.44.44,0,0,1-.42.27h-.16a.44.44,0,0,1-.42-.27l-3-5.4a4.18,4.18,0,0,1,0,.59v6.32h-1v-8.6h.86a.78.78,0,0,1,.24,0,.38.38,0,0,1,.16.17l3,5.29.14.3a3.05,3.05,0,0,1,.13.32,3.05,3.05,0,0,1,.13-.32,2.92,2.92,0,0,1,.14-.31l2.92-5.28a.32.32,0,0,1,.15-.17.81.81,0,0,1,.25,0Z"/><path class="a" d="M247.29,222.61a3.09,3.09,0,0,1,1.2.23,2.41,2.41,0,0,1,.91.63,2.9,2.9,0,0,1,.58,1,4.08,4.08,0,0,1,.2,1.3A4,4,0,0,1,250,227a2.94,2.94,0,0,1-.58,1,2.5,2.5,0,0,1-.91.62,3.41,3.41,0,0,1-2.41,0,2.45,2.45,0,0,1-.92-.62,2.94,2.94,0,0,1-.58-1,4,4,0,0,1-.2-1.29,4.08,4.08,0,0,1,.2-1.3,2.9,2.9,0,0,1,.58-1,2.37,2.37,0,0,1,.92-.63A3.07,3.07,0,0,1,247.29,222.61Zm0,5.43a1.57,1.57,0,0,0,1.34-.6,3.47,3.47,0,0,0,0-3.38,1.58,1.58,0,0,0-1.34-.61,2,2,0,0,0-.8.16,1.37,1.37,0,0,0-.56.45,2,2,0,0,0-.34.72,4.11,4.11,0,0,0-.11,1,2.8,2.8,0,0,0,.45,1.69A1.57,1.57,0,0,0,247.29,228Z"/><path class="a" d="M257.64,228v2.57a.33.33,0,0,1-.09.25.34.34,0,0,1-.23.08h-.65v-2.09h-5.11v1.79a.35.35,0,0,1-.07.21.27.27,0,0,1-.23.09h-.67V228h.2a1.54,1.54,0,0,0,.42-.07,1.09,1.09,0,0,0,.4-.28,2.47,2.47,0,0,0,.36-.56,5.43,5.43,0,0,0,.31-1c.09-.39.17-.87.24-1.43s.12-1.23.16-2h3.85V228Zm-2.15,0v-4.46h-1.93c0,.62-.09,1.18-.17,1.66a10.39,10.39,0,0,1-.25,1.26,4.93,4.93,0,0,1-.31.92,3.18,3.18,0,0,1-.35.62Z"/><path class="a" d="M263.68,222.71l-3.39,7.87a.46.46,0,0,1-.13.19.37.37,0,0,1-.25.08h-.79l1.11-2.41-2.51-5.73h.92a.29.29,0,0,1,.22.07.36.36,0,0,1,.11.15l1.63,3.83a4.1,4.1,0,0,1,.16.53q.09-.28.18-.54l1.58-3.82a.36.36,0,0,1,.12-.16.36.36,0,0,1,.2-.06Z"/><path class="a" d="M269.4,228.79h-1.07v-5.24h-1.92a18.72,18.72,0,0,1-.21,2,9.51,9.51,0,0,1-.35,1.44,3.91,3.91,0,0,1-.45,1,2.42,2.42,0,0,1-.52.57,1.52,1.52,0,0,1-.56.27,2.38,2.38,0,0,1-.58.08c-.34,0-.51-.06-.51-.17V228h.31A1.19,1.19,0,0,0,264,228a1.11,1.11,0,0,0,.42-.27,2.45,2.45,0,0,0,.38-.57,4.59,4.59,0,0,0,.34-1,12.25,12.25,0,0,0,.26-1.44c.08-.56.14-1.23.18-2h3.87Z"/><path class="a" d="M276.31,222.71v6.08h-1.07v-4.13a2.35,2.35,0,0,1,0-.26l0-.27a1.51,1.51,0,0,1-.11.22.78.78,0,0,1-.11.18l-2.93,4a1,1,0,0,1-.17.19.32.32,0,0,1-.22.08h-.65v-6.07h1.08v4.12c0,.08,0,.16,0,.25l0,.28c0-.08.07-.15.1-.22l.11-.18,2.94-4a1.29,1.29,0,0,1,.16-.18.33.33,0,0,1,.23-.09Z"/><path class="a" d="M281.7,225a9.38,9.38,0,0,0,1.28,4.8.37.37,0,0,1,0,.29.36.36,0,0,1-.14.16l-.47.29a11.2,11.2,0,0,1-.77-1.37,9.4,9.4,0,0,1-.51-1.36,9.65,9.65,0,0,1-.28-1.38,11.33,11.33,0,0,1,0-2.85,9.25,9.25,0,0,1,.28-1.37,9,9,0,0,1,.51-1.36,11.3,11.3,0,0,1,.77-1.38l.47.3a.36.36,0,0,1,.14.16c0,.06,0,.15,0,.27a9.72,9.72,0,0,0-1,2.31A9.45,9.45,0,0,0,281.7,225Z"/><path class="a" d="M284.1,228.13a.76.76,0,0,1,0-.3.78.78,0,0,1,.16-.24.79.79,0,0,1,.23-.16.8.8,0,0,1,.3-.06.72.72,0,0,1,.29.06,1,1,0,0,1,.24.16.81.81,0,0,1,.17.24.77.77,0,0,1,.06.3.73.73,0,0,1-.06.3.76.76,0,0,1-.17.23.78.78,0,0,1-.24.16.72.72,0,0,1-.29.06.8.8,0,0,1-.3-.06.63.63,0,0,1-.23-.16.67.67,0,0,1-.21-.53Z"/><path class="a" d="M288.13,223.65a3.18,3.18,0,0,1,.88-.76,2.32,2.32,0,0,1,1.16-.29,2.24,2.24,0,0,1,.95.2,2.1,2.1,0,0,1,.73.6,2.82,2.82,0,0,1,.46,1,5,5,0,0,1,.16,1.34,4.15,4.15,0,0,1-.18,1.25,2.88,2.88,0,0,1-.52,1,2.26,2.26,0,0,1-.83.67,2.44,2.44,0,0,1-1.1.24,2.14,2.14,0,0,1-1.66-.71v2.69h-1.07v-8.14h.64a.26.26,0,0,1,.28.22Zm.05,3.67a1.74,1.74,0,0,0,.64.56,1.78,1.78,0,0,0,.78.16,1.54,1.54,0,0,0,1.31-.6,2.87,2.87,0,0,0,.46-1.73,4.3,4.3,0,0,0-.11-1,2.05,2.05,0,0,0-.3-.7,1.26,1.26,0,0,0-.49-.4,1.67,1.67,0,0,0-.65-.12,1.75,1.75,0,0,0-.92.24,2.65,2.65,0,0,0-.72.67Z"/><path class="a" d="M298.92,222.71l-3.39,7.87a.46.46,0,0,1-.13.19.37.37,0,0,1-.25.08h-.79l1.1-2.41-2.5-5.73h.92a.31.31,0,0,1,.22.07.48.48,0,0,1,.11.15l1.63,3.83a4.1,4.1,0,0,1,.16.53c.05-.19.12-.37.18-.54l1.58-3.82a.36.36,0,0,1,.12-.16.34.34,0,0,1,.2-.06Z"/><path class="a" d="M303.93,223.79a.93.93,0,0,1-.1.1.18.18,0,0,1-.13,0,.37.37,0,0,1-.2-.08l-.27-.16a2,2,0,0,0-1.75-.08,1.42,1.42,0,0,0-.57.46,2.2,2.2,0,0,0-.35.72,3.62,3.62,0,0,0-.11,1,3.7,3.7,0,0,0,.12,1,2.21,2.21,0,0,0,.36.72,1.5,1.5,0,0,0,.56.44,1.7,1.7,0,0,0,.73.15,1.89,1.89,0,0,0,.64-.09,1.64,1.64,0,0,0,.42-.21l.28-.2a.34.34,0,0,1,.22-.1.24.24,0,0,1,.2.11l.3.39a2.24,2.24,0,0,1-.45.42,3.5,3.5,0,0,1-.54.29,3.25,3.25,0,0,1-.61.17,4.74,4.74,0,0,1-.65.05,2.67,2.67,0,0,1-1.06-.21,2.34,2.34,0,0,1-.85-.61,2.68,2.68,0,0,1-.56-1,3.85,3.85,0,0,1-.21-1.32,4.21,4.21,0,0,1,.19-1.26,3,3,0,0,1,.55-1,2.45,2.45,0,0,1,.9-.65,2.92,2.92,0,0,1,1.22-.24,2.85,2.85,0,0,1,1.13.21,2.58,2.58,0,0,1,.87.59Z"/><path class="a" d="M306.11,225a9.46,9.46,0,0,0-.33-2.49,9.69,9.69,0,0,0-.95-2.31.29.29,0,0,1-.06-.15.24.24,0,0,1,0-.12.15.15,0,0,1,.06-.09.22.22,0,0,1,.09-.07l.47-.3a11.19,11.19,0,0,1,.76,1.38,9,9,0,0,1,.51,1.36,9.28,9.28,0,0,1,.29,1.37,11.33,11.33,0,0,1,0,2.85,9.69,9.69,0,0,1-.29,1.38,9.4,9.4,0,0,1-.51,1.36,11.09,11.09,0,0,1-.76,1.37l-.47-.29a.22.22,0,0,1-.09-.07.24.24,0,0,1-.06-.09.24.24,0,0,1,0-.12.32.32,0,0,1,.06-.17,9.65,9.65,0,0,0,1.28-4.8Z"/><path class="a" d="M595.54,157a3.59,3.59,0,0,1,1.22-.66,5,5,0,0,1,1.57-.23,4.63,4.63,0,0,1,1.29.17,3,3,0,0,1,1,.45,2.16,2.16,0,0,1,.62.7,1.88,1.88,0,0,1,.22.88,2,2,0,0,1-.35,1.14,2.22,2.22,0,0,1-1,.76,3.07,3.07,0,0,1,.65.34,2.43,2.43,0,0,1,.5.45,1.8,1.8,0,0,1,.44,1.19,2.5,2.5,0,0,1-.22,1.05,2.75,2.75,0,0,1-.66.86,3.25,3.25,0,0,1-1.06.57,4.55,4.55,0,0,1-1.44.21,5.05,5.05,0,0,1-1.79-.3,4.34,4.34,0,0,1-1.37-.82l.36-.55a.74.74,0,0,1,.13-.12.35.35,0,0,1,.17,0,.61.61,0,0,1,.33.13,4.16,4.16,0,0,0,.48.3,3.7,3.7,0,0,0,.71.3,3.33,3.33,0,0,0,1,.13,3.2,3.2,0,0,0,.91-.11,2.21,2.21,0,0,0,.69-.33,1.46,1.46,0,0,0,.42-.53,1.75,1.75,0,0,0,.14-.7,1.31,1.31,0,0,0-.14-.62,1.23,1.23,0,0,0-.4-.48,1.87,1.87,0,0,0-.65-.31,2.89,2.89,0,0,0-.86-.11H597.2v-1h1.22a2.86,2.86,0,0,0,.73-.09,1.82,1.82,0,0,0,.58-.26,1.33,1.33,0,0,0,.39-.43,1.18,1.18,0,0,0-.37-1.54,1.85,1.85,0,0,0-.6-.27,3.53,3.53,0,0,0-1.71,0,3.41,3.41,0,0,0-.62.22,2.86,2.86,0,0,0-.41.23.63.63,0,0,1-.28.1.43.43,0,0,1-.17,0,.58.58,0,0,1-.12-.14Z"/><path class="a" d="M603,159.58a3.68,3.68,0,0,1,1.18-.73,3.82,3.82,0,0,1,1.39-.24,2.72,2.72,0,0,1,1,.17,2.09,2.09,0,0,1,.72.47,2,2,0,0,1,.44.72,2.85,2.85,0,0,1,.15.94v3.89h-.52a.55.55,0,0,1-.25-.05.44.44,0,0,1-.15-.21l-.13-.57a5.28,5.28,0,0,1-.5.39,3.81,3.81,0,0,1-.52.29,2.79,2.79,0,0,1-.58.18,3.62,3.62,0,0,1-.69.06,2.34,2.34,0,0,1-.71-.1,1.63,1.63,0,0,1-.59-.29,1.5,1.5,0,0,1-.4-.5,1.81,1.81,0,0,1-.14-.72,1.32,1.32,0,0,1,.21-.7,1.84,1.84,0,0,1,.7-.59,4.66,4.66,0,0,1,1.25-.42,10.53,10.53,0,0,1,1.89-.19v-.47a1.54,1.54,0,0,0-.33-1.07,1.22,1.22,0,0,0-1-.37,2.38,2.38,0,0,0-.71.1,3,3,0,0,0-.5.22l-.37.23a.6.6,0,0,1-.3.1.34.34,0,0,1-.2-.06.93.93,0,0,1-.14-.14Zm3.73,2.48a11.65,11.65,0,0,0-1.36.12,3.94,3.94,0,0,0-.91.24,1.35,1.35,0,0,0-.52.35.77.77,0,0,0-.15.46.86.86,0,0,0,.08.41.82.82,0,0,0,.23.29,1,1,0,0,0,.34.16,1.54,1.54,0,0,0,.43,0,2.47,2.47,0,0,0,.56-.06,2,2,0,0,0,.47-.16,2.73,2.73,0,0,0,.43-.26,3.14,3.14,0,0,0,.4-.34Z"/><path class="a" d="M615.08,164.8h-1.16v-5.27h-3.16v5.27H609.6v-6.08h5.48Z"/><path class="a" d="M622.57,158.72l-3.66,7.87a.58.58,0,0,1-.15.19.41.41,0,0,1-.27.07h-.85l1.2-2.41-2.71-5.72h1a.35.35,0,0,1,.23.07.29.29,0,0,1,.12.15l1.76,3.83a3,3,0,0,1,.17.53c.06-.19.13-.37.2-.54l1.7-3.82a.36.36,0,0,1,.14-.16.37.37,0,0,1,.21-.06Z"/><path class="a" d="M633.63,164v2.57a.31.31,0,0,1-.09.24.37.37,0,0,1-.25.09h-.71V164.8h-9v-6.08h1.16V164h2.68v-5.27h1.16V164h2.67v-5.27h1.16V164Z"/><path class="a" d="M640,163.94a2.12,2.12,0,0,1-.51.42,2.85,2.85,0,0,1-.64.29,3.25,3.25,0,0,1-.7.17,4.37,4.37,0,0,1-.72.06,3.6,3.6,0,0,1-1.25-.21,2.66,2.66,0,0,1-1-.63,3,3,0,0,1-.65-1,4,4,0,0,1-.23-1.4,3.25,3.25,0,0,1,.21-1.18,2.67,2.67,0,0,1,.61-1,2.83,2.83,0,0,1,1-.64,3.49,3.49,0,0,1,1.29-.23,3.24,3.24,0,0,1,1.09.18,2.75,2.75,0,0,1,.87.53,2.54,2.54,0,0,1,.57.85,3,3,0,0,1,.21,1.16.66.66,0,0,1-.06.34.27.27,0,0,1-.22.08h-4.39a3.26,3.26,0,0,0,.17,1,1.93,1.93,0,0,0,.43.71,1.72,1.72,0,0,0,.65.43,2.47,2.47,0,0,0,.84.14,2.75,2.75,0,0,0,.75-.09,5.28,5.28,0,0,0,.54-.2,4,4,0,0,0,.38-.21.54.54,0,0,1,.26-.09.29.29,0,0,1,.22.1Zm-.93-2.85a2.15,2.15,0,0,0-.11-.68,1.69,1.69,0,0,0-.33-.53,1.49,1.49,0,0,0-.53-.35,2,2,0,0,0-.71-.12,1.89,1.89,0,0,0-1.31.44,2.08,2.08,0,0,0-.6,1.24Z"/><path class="a" d="M647,158.72v6.08h-1.16V162h-3.15v2.85h-1.16v-6.08h1.16v2.42h3.15v-2.42Z"/><path class="a" d="M654.3,158.72v6.08h-1.16V162H650v2.85h-1.16v-6.08H650v2.42h3.15v-2.42Z"/><path class="a" d="M656,159.58a3.79,3.79,0,0,1,1.18-.73,3.82,3.82,0,0,1,1.39-.24,2.72,2.72,0,0,1,1,.17,2.09,2.09,0,0,1,.72.47,2,2,0,0,1,.44.72,2.85,2.85,0,0,1,.15.94v3.89h-.51a.57.57,0,0,1-.26-.05.44.44,0,0,1-.15-.21l-.13-.57a5.28,5.28,0,0,1-.5.39,3.81,3.81,0,0,1-.52.29,2.62,2.62,0,0,1-.58.18,3.58,3.58,0,0,1-.68.06,2.37,2.37,0,0,1-.72-.1,1.63,1.63,0,0,1-.59-.29,1.5,1.5,0,0,1-.4-.5,1.81,1.81,0,0,1-.14-.72,1.32,1.32,0,0,1,.21-.7,2,2,0,0,1,.7-.59,4.79,4.79,0,0,1,1.25-.42,10.53,10.53,0,0,1,1.89-.19v-.47a1.54,1.54,0,0,0-.33-1.07,1.22,1.22,0,0,0-1-.37,2.38,2.38,0,0,0-.71.1,3,3,0,0,0-.5.22l-.37.23a.6.6,0,0,1-.3.1.36.36,0,0,1-.2-.06l-.14-.14Zm3.73,2.48a11.65,11.65,0,0,0-1.36.12,3.94,3.94,0,0,0-.91.24,1.23,1.23,0,0,0-.51.35.72.72,0,0,0-.16.46.86.86,0,0,0,.08.41.82.82,0,0,0,.23.29,1,1,0,0,0,.34.16,1.54,1.54,0,0,0,.43,0,2.47,2.47,0,0,0,.56-.06,1.86,1.86,0,0,0,.47-.16,2.34,2.34,0,0,0,.43-.26,3.14,3.14,0,0,0,.4-.34Z"/><path class="a" d="M667.13,158.72v6.08H666v-2.57h-.51a1.26,1.26,0,0,0-.3,0,.66.66,0,0,0-.21.08.79.79,0,0,0-.15.12l-.13.17-1.44,1.79a.85.85,0,0,1-.27.29,1,1,0,0,1-.47.09h-.8l1.91-2.3a1.11,1.11,0,0,1,.61-.48,3,3,0,0,1-.84-.21,2,2,0,0,1-.56-.37,1.31,1.31,0,0,1-.32-.47,1.57,1.57,0,0,1,0-1.15,1.47,1.47,0,0,1,.42-.55,2.19,2.19,0,0,1,.76-.4,3.68,3.68,0,0,1,1.13-.15Zm-1.1,2.84v-2.12h-1.1a1.67,1.67,0,0,0-.63.1,1.14,1.14,0,0,0-.4.25,1,1,0,0,0-.22.34,1.26,1.26,0,0,0-.06.38.91.91,0,0,0,.39.77,1.83,1.83,0,0,0,1.06.28Z"/><path class="a" d="M601.27,179.2h-1.16v-5.27H597v5.27H595.8v-6.08h5.47Z"/><path class="a" d="M604.21,174.06a3.16,3.16,0,0,1,.95-.76,2.68,2.68,0,0,1,1.25-.29,2.63,2.63,0,0,1,1,.2,2,2,0,0,1,.78.6,2.55,2.55,0,0,1,.5,1,4.53,4.53,0,0,1,.18,1.34,3.9,3.9,0,0,1-.2,1.25,2.88,2.88,0,0,1-.56,1,2.58,2.58,0,0,1-.89.67,2.84,2.84,0,0,1-1.19.24,2.54,2.54,0,0,1-1-.19,2.63,2.63,0,0,1-.76-.52v2.68H603.1v-8.13h.7a.28.28,0,0,1,.3.22Zm0,3.67a1.81,1.81,0,0,0,.7.56,2.06,2.06,0,0,0,.84.16,1.72,1.72,0,0,0,1.41-.6,2.68,2.68,0,0,0,.5-1.73,3.76,3.76,0,0,0-.12-1,1.69,1.69,0,0,0-.33-.7,1.2,1.2,0,0,0-.52-.4,2,2,0,0,0-.71-.13,2,2,0,0,0-1,.24,2.89,2.89,0,0,0-.78.68Z"/><path class="a" d="M613.13,173a3.81,3.81,0,0,1,1.3.22,2.72,2.72,0,0,1,1.61,1.62,3.92,3.92,0,0,1,0,2.59,2.71,2.71,0,0,1-.63,1,2.59,2.59,0,0,1-1,.63,3.58,3.58,0,0,1-1.3.22,3.55,3.55,0,0,1-1.3-.22,2.55,2.55,0,0,1-1-.63,2.71,2.71,0,0,1-.63-1,3.92,3.92,0,0,1,0-2.59,2.84,2.84,0,0,1,.63-1,2.8,2.8,0,0,1,1-.63A3.77,3.77,0,0,1,613.13,173Zm0,5.43a1.72,1.72,0,0,0,1.45-.61,2.62,2.62,0,0,0,.48-1.68,2.66,2.66,0,0,0-.48-1.69,1.72,1.72,0,0,0-1.45-.61,2.1,2.1,0,0,0-.86.16,1.59,1.59,0,0,0-.61.45,2,2,0,0,0-.36.72,3.63,3.63,0,0,0-.12,1,2.62,2.62,0,0,0,.48,1.68A1.76,1.76,0,0,0,613.13,178.45Z"/><path class="a" d="M622,173.93h-3.1v5.27h-1.16v-6.08H622Z"/><path class="a" d="M624.17,174.06a3.32,3.32,0,0,1,1-.76,2.8,2.8,0,0,1,2.28-.09,2.15,2.15,0,0,1,.78.6,2.7,2.7,0,0,1,.5,1,4.53,4.53,0,0,1,.18,1.34,3.9,3.9,0,0,1-.2,1.25,3,3,0,0,1-.56,1,2.53,2.53,0,0,1-.9.67,2.8,2.8,0,0,1-1.18.24,2.38,2.38,0,0,1-1.8-.71v2.68h-1.16v-8.13h.69a.28.28,0,0,1,.31.22Zm.06,3.67a1.78,1.78,0,0,0,.69.56,2.11,2.11,0,0,0,.85.16,1.72,1.72,0,0,0,1.41-.6,2.68,2.68,0,0,0,.49-1.73,4.24,4.24,0,0,0-.11-1,2,2,0,0,0-.33-.7,1.26,1.26,0,0,0-.52-.4,2,2,0,0,0-.71-.13,2,2,0,0,0-1,.24,2.89,2.89,0,0,0-.78.68Z"/><path class="a" d="M630.16,174a3.74,3.74,0,0,1,1.17-.73,3.92,3.92,0,0,1,1.4-.24,2.72,2.72,0,0,1,1,.17,2.09,2.09,0,0,1,.72.47,2,2,0,0,1,.44.72,2.85,2.85,0,0,1,.15.94v3.89h-.52a.55.55,0,0,1-.25,0,.44.44,0,0,1-.15-.21l-.13-.57a5.28,5.28,0,0,1-.5.39,3,3,0,0,1-.52.29,2.79,2.79,0,0,1-.58.18,3.62,3.62,0,0,1-.69.06,2.34,2.34,0,0,1-.71-.1,1.55,1.55,0,0,1-.59-.29,1.5,1.5,0,0,1-.4-.5,1.81,1.81,0,0,1-.14-.72,1.27,1.27,0,0,1,.21-.69,1.77,1.77,0,0,1,.7-.6A4.66,4.66,0,0,1,632,176a10.53,10.53,0,0,1,1.89-.19v-.47a1.54,1.54,0,0,0-.33-1.07,1.25,1.25,0,0,0-1-.37,2.38,2.38,0,0,0-.71.1,2.33,2.33,0,0,0-.5.23l-.37.22a.6.6,0,0,1-.3.1.34.34,0,0,1-.2-.06.93.93,0,0,1-.14-.14Zm3.73,2.48a11.65,11.65,0,0,0-1.36.12,3.94,3.94,0,0,0-.91.24,1.35,1.35,0,0,0-.52.35.77.77,0,0,0-.15.46.86.86,0,0,0,.08.41.82.82,0,0,0,.23.29,1,1,0,0,0,.34.16,1.54,1.54,0,0,0,.43,0,3.24,3.24,0,0,0,.56,0,2.64,2.64,0,0,0,.47-.17,2.73,2.73,0,0,0,.43-.26,3.14,3.14,0,0,0,.4-.34Z"/><path class="a" d="M644.09,173.1v6.1h-1v-4c0-.11,0-.24,0-.38l.06-.38-2.28,3.7a.32.32,0,0,1-.14.14.31.31,0,0,1-.19.06h-.13a.36.36,0,0,1-.2-.06.38.38,0,0,1-.14-.14l-2.32-3.72c0,.12,0,.26.06.4a2.75,2.75,0,0,1,0,.38v4h-1.05v-6.1h.93a.69.69,0,0,1,.24.05.52.52,0,0,1,.2.19l2.05,3.17a5.14,5.14,0,0,1,.27.58,3.89,3.89,0,0,1,.25-.58l2-3.17a.42.42,0,0,1,.21-.19.6.6,0,0,1,.24-.05Z"/><path class="a" d="M653.24,173.1v6.1h-1v-4a2.62,2.62,0,0,1,0-.38,2.32,2.32,0,0,1,.06-.38L650,178.1a.38.38,0,0,1-.14.14.31.31,0,0,1-.19.06h-.13a.34.34,0,0,1-.2-.06.38.38,0,0,1-.14-.14l-2.32-3.72c0,.12,0,.26.06.4a2.62,2.62,0,0,1,0,.38v4h-1v-6.1h.93a.69.69,0,0,1,.24.05.52.52,0,0,1,.2.19l2.05,3.17a3.79,3.79,0,0,1,.26.58,3.89,3.89,0,0,1,.26-.58l2-3.17a.45.45,0,0,1,.2-.19.69.69,0,0,1,.24-.05Z"/><path class="a" d="M654.9,174a3.63,3.63,0,0,1,1.17-.73,3.92,3.92,0,0,1,1.4-.24,2.76,2.76,0,0,1,1,.17,2,2,0,0,1,.71.47,1.91,1.91,0,0,1,.45.72,2.85,2.85,0,0,1,.14.94v3.89h-.51a.6.6,0,0,1-.26,0,.43.43,0,0,1-.14-.21l-.13-.57a5.28,5.28,0,0,1-.5.39,2.9,2.9,0,0,1-1.1.47,3.69,3.69,0,0,1-.69.06,2.46,2.46,0,0,1-.72-.1,1.58,1.58,0,0,1-.58-.29,1.5,1.5,0,0,1-.4-.5,1.66,1.66,0,0,1-.15-.72,1.28,1.28,0,0,1,.22-.69,1.81,1.81,0,0,1,.69-.6,4.92,4.92,0,0,1,1.25-.42,10.75,10.75,0,0,1,1.9-.19v-.47a1.54,1.54,0,0,0-.33-1.07,1.27,1.27,0,0,0-1-.37,2.45,2.45,0,0,0-.72.1,2.59,2.59,0,0,0-.5.23l-.36.22a.6.6,0,0,1-.3.1.32.32,0,0,1-.2-.06.62.62,0,0,1-.14-.14Zm3.73,2.48a11.26,11.26,0,0,0-1.36.12,4,4,0,0,0-.92.24,1.38,1.38,0,0,0-.51.35.78.78,0,0,0-.16.46.86.86,0,0,0,.09.41.73.73,0,0,0,.23.29.89.89,0,0,0,.34.16,1.45,1.45,0,0,0,.43,0,3,3,0,0,0,.55,0,2.48,2.48,0,0,0,.48-.17,2.73,2.73,0,0,0,.43-.26,4,4,0,0,0,.4-.34Z"/><line class="b" x1="116" y1="108.39" x2="164.46" y2="108.16"/><path class="a" d="M170.5,108.13a30.14,30.14,0,0,0-8.52,4.8l1.69-4.77-1.74-4.74A30.32,30.32,0,0,0,170.5,108.13Z"/><line class="b" x1="526" y1="108.39" x2="574.46" y2="108.16"/><path class="a" d="M580.5,108.13a30.14,30.14,0,0,0-8.52,4.8l1.69-4.77-1.74-4.74A30.32,30.32,0,0,0,580.5,108.13Z"/><line class="b" x1="313" y1="108.39" x2="361.46" y2="108.16"/><path class="a" d="M367.5,108.13a30.14,30.14,0,0,0-8.52,4.8l1.69-4.77-1.74-4.74A30.32,30.32,0,0,0,367.5,108.13Z"/><path class="a" d="M317.08,86a3.1,3.1,0,0,0-1.05.27,2.08,2.08,0,0,0-.72.59,2.51,2.51,0,0,0-.44.88,5.17,5.17,0,0,0-.16,1.17,1.9,1.9,0,0,1,.37-.52,2.32,2.32,0,0,1,.52-.4,2.75,2.75,0,0,1,.64-.25,2.86,2.86,0,0,1,.73-.09,2.53,2.53,0,0,1,1.09.22,2.24,2.24,0,0,1,.82.6,2.6,2.6,0,0,1,.52.94,3.89,3.89,0,0,1,.18,1.21,3.38,3.38,0,0,1-.2,1.23,2.73,2.73,0,0,1-.59.94,2.69,2.69,0,0,1-.92.59,3.3,3.3,0,0,1-1.21.21,3,3,0,0,1-1.14-.2,2.27,2.27,0,0,1-.93-.67,3.45,3.45,0,0,1-.61-1.23,6.83,6.83,0,0,1-.23-1.89,8.16,8.16,0,0,1,.18-1.77,3.94,3.94,0,0,1,.56-1.39,3,3,0,0,1,1-1A3.53,3.53,0,0,1,317,85l2.17-.19.06.55a.54.54,0,0,1-.06.32.26.26,0,0,1-.25.13Zm-.42,6.8a1.65,1.65,0,0,0,1.36-.57,2.49,2.49,0,0,0,.46-1.61A2.62,2.62,0,0,0,318,89a1.57,1.57,0,0,0-1.32-.57,2.07,2.07,0,0,0-.77.13,1.56,1.56,0,0,0-.58.39,1.92,1.92,0,0,0-.37.64,2.83,2.83,0,0,0-.13.86,3.65,3.65,0,0,0,.12,1,2,2,0,0,0,.34.73,1.43,1.43,0,0,0,.55.46A1.78,1.78,0,0,0,316.66,92.79Z"/><path class="a" d="M320.78,88.28a3.6,3.6,0,0,1,1.09-.73,3.37,3.37,0,0,1,1.29-.24,2.38,2.38,0,0,1,.91.17,1.85,1.85,0,0,1,.66.47,1.93,1.93,0,0,1,.41.73,3,3,0,0,1,.14.93V93.5h-.48a.54.54,0,0,1-.24,0,.35.35,0,0,1-.13-.2l-.12-.58a4,4,0,0,1-.47.39,2.36,2.36,0,0,1-.48.29,2.21,2.21,0,0,1-.53.18,2.51,2.51,0,0,1-.64.07,2.39,2.39,0,0,1-.66-.1,1.57,1.57,0,0,1-.54-.3,1.34,1.34,0,0,1-.37-.5,1.74,1.74,0,0,1-.14-.72,1.34,1.34,0,0,1,.2-.69,1.76,1.76,0,0,1,.64-.59,4.8,4.8,0,0,1,1.16-.43,9.25,9.25,0,0,1,1.75-.18v-.48a1.64,1.64,0,0,0-.3-1.07,1.12,1.12,0,0,0-.9-.36,1.83,1.83,0,0,0-.66.1,2.19,2.19,0,0,0-.46.22l-.34.22a.44.44,0,0,1-.28.1.28.28,0,0,1-.18-.06.35.35,0,0,1-.13-.14Zm3.45,2.48a9.64,9.64,0,0,0-1.25.12,3.5,3.5,0,0,0-.85.24,1.13,1.13,0,0,0-.47.36.74.74,0,0,0-.15.45,1.08,1.08,0,0,0,.08.42.77.77,0,0,0,.53.44,1.23,1.23,0,0,0,.39.06,2.12,2.12,0,0,0,.52-.06,1.82,1.82,0,0,0,.44-.17,2.42,2.42,0,0,0,.4-.25,3.91,3.91,0,0,0,.36-.35Z"/><path class="a" d="M332.12,87.42V93.5h-1.07V89.37a2.44,2.44,0,0,1,0-.26l0-.27a1.51,1.51,0,0,1-.11.22,1.18,1.18,0,0,1-.11.19l-2.93,4a1.41,1.41,0,0,1-.17.18.31.31,0,0,1-.22.09h-.65V87.43H328v4.13c0,.07,0,.15,0,.25l0,.27a2.09,2.09,0,0,1,.1-.21l.11-.19,2.94-4a1.29,1.29,0,0,1,.16-.18.35.35,0,0,1,.23-.09ZM329.58,86a1.58,1.58,0,0,0,.41,0,.56.56,0,0,0,.28-.19.73.73,0,0,0,.15-.32,2.24,2.24,0,0,0,.05-.49h.62a.21.21,0,0,1,.18.1.46.46,0,0,1,.06.23,1.19,1.19,0,0,1-.12.54,1.24,1.24,0,0,1-.35.41,1.65,1.65,0,0,1-.55.26,3,3,0,0,1-1.46,0,1.65,1.65,0,0,1-.55-.26,1.24,1.24,0,0,1-.35-.41,1.19,1.19,0,0,1-.12-.54.46.46,0,0,1,.06-.23.21.21,0,0,1,.18-.1h.62a2.24,2.24,0,0,0,.05.49.73.73,0,0,0,.15.32.56.56,0,0,0,.28.19A1.58,1.58,0,0,0,329.58,86Z"/><path class="a" d="M338.86,88.24h-2.33V93.5h-1.07V88.24h-2.33v-.82h5.73Z"/><path class="a" d="M339.52,89.45h3v.91h-3Z"/><path class="a" d="M347.77,87.72a.56.56,0,0,1,.22-.21.52.52,0,0,1,.29-.09h.84l-1.58,2.32a1.9,1.9,0,0,1-.3.36,1.13,1.13,0,0,1-.39.22,1.18,1.18,0,0,1,.49.24,1.53,1.53,0,0,1,.35.43l1.6,2.51h-.74a.81.81,0,0,1-.45-.1.87.87,0,0,1-.27-.27l-1.18-1.89a.93.93,0,0,0-.85-.47h-.65v2.74h-1.07V87.42h1.07v2.63h.58a.86.86,0,0,0,.75-.41Z"/><path class="a" d="M352.61,87.33a3.09,3.09,0,0,1,1.2.22,2.65,2.65,0,0,1,.91.63,2.85,2.85,0,0,1,.58,1,4.26,4.26,0,0,1,0,2.58,2.85,2.85,0,0,1-.58,1,2.65,2.65,0,0,1-.91.63,3.56,3.56,0,0,1-2.41,0,2.69,2.69,0,0,1-.92-.63,2.85,2.85,0,0,1-.58-1,4.26,4.26,0,0,1,0-2.58,2.85,2.85,0,0,1,.58-1,2.69,2.69,0,0,1,.92-.63A3.11,3.11,0,0,1,352.61,87.33Zm0,5.42a1.55,1.55,0,0,0,1.34-.6,3.4,3.4,0,0,0,0-3.38,1.55,1.55,0,0,0-1.34-.6,2,2,0,0,0-.8.15,1.64,1.64,0,0,0-.56.45,2.14,2.14,0,0,0-.34.73,4,4,0,0,0-.11,1,2.78,2.78,0,0,0,.45,1.69A1.59,1.59,0,0,0,352.61,92.75Z"/><path class="a" d="M363,92.69v2.57a.29.29,0,0,1-.31.33H362V93.5h-5.11v1.79a.35.35,0,0,1-.07.21.27.27,0,0,1-.23.09h-.67V92.72h.2a1.23,1.23,0,0,0,.42-.07,1.09,1.09,0,0,0,.4-.27,2.15,2.15,0,0,0,.36-.57,5.17,5.17,0,0,0,.31-1c.09-.39.17-.87.24-1.43s.12-1.23.16-2h3.85v5.27Zm-2.15,0V88.26h-1.93c0,.63-.09,1.18-.16,1.66s-.16.9-.25,1.26a5.73,5.73,0,0,1-.32.92,3.18,3.18,0,0,1-.35.62Z"/><polyline class="b" points="341 225.5 437 225.5 437.46 163.53"/><path class="a" d="M437.5,157.5a30.08,30.08,0,0,0,4.69,8.58l-4.74-1.75L432.68,166A30.14,30.14,0,0,0,437.5,157.5Z"/><polygon class="k" points="617.5 108.26 617.5 91.52 632 99.89 646.5 108.26 632 116.63 617.5 125 617.5 108.26"/></svg>